<svg width="204" height="61" viewBox="0 0 204 61" fill="none" xmlns="http://www.w3.org/2000/svg">
<path d="M35.4886 25.9091V28.6364H27.4091V25.9091H35.4886ZM29.2585 39V24.9631C29.2585 24.0142 29.4432 23.2273 29.8125 22.6023C30.1875 21.9773 30.6989 21.5085 31.3466 21.196C31.9943 20.8835 32.7301 20.7273 33.554 20.7273C34.1108 20.7273 34.6193 20.7699 35.0795 20.8551C35.5455 20.9403 35.892 21.017 36.1193 21.0852L35.4716 23.8125C35.3295 23.767 35.1534 23.7244 34.9432 23.6847C34.7386 23.6449 34.5284 23.625 34.3125 23.625C33.7784 23.625 33.4062 23.75 33.196 24C32.9858 24.2443 32.8807 24.5881 32.8807 25.0312V39H29.2585ZM37.7067 39V25.9091H41.2266V28.1932H41.3629C41.6016 27.3807 42.0021 26.767 42.5646 26.3523C43.1271 25.9318 43.7749 25.7216 44.5078 25.7216C44.6896 25.7216 44.8857 25.733 45.0959 25.7557C45.3061 25.7784 45.4908 25.8097 45.6499 25.8494V29.071C45.4794 29.0199 45.2436 28.9744 44.9425 28.9347C44.6413 28.8949 44.3658 28.875 44.1158 28.875C43.5817 28.875 43.1044 28.9915 42.6839 29.2244C42.2692 29.4517 41.9396 29.7699 41.6953 30.179C41.4567 30.5881 41.3374 31.0597 41.3374 31.5938V39H37.7067ZM52.8324 39.2557C51.5085 39.2557 50.3636 38.9744 49.3977 38.4119C48.4375 37.8437 47.696 37.054 47.1733 36.0426C46.6506 35.0256 46.3892 33.8466 46.3892 32.5057C46.3892 31.1534 46.6506 29.9716 47.1733 28.9602C47.696 27.9432 48.4375 27.1534 49.3977 26.5909C50.3636 26.0227 51.5085 25.7386 52.8324 25.7386C54.1562 25.7386 55.2983 26.0227 56.2585 26.5909C57.2244 27.1534 57.9688 27.9432 58.4915 28.9602C59.0142 29.9716 59.2756 31.1534 59.2756 32.5057C59.2756 33.8466 59.0142 35.0256 58.4915 36.0426C57.9688 37.054 57.2244 37.8437 56.2585 38.4119C55.2983 38.9744 54.1562 39.2557 52.8324 39.2557ZM52.8494 36.4432C53.4517 36.4432 53.9545 36.2727 54.358 35.9318C54.7614 35.5852 55.0653 35.1136 55.2699 34.517C55.4801 33.9205 55.5852 33.2415 55.5852 32.4801C55.5852 31.7188 55.4801 31.0398 55.2699 30.4432C55.0653 29.8466 54.7614 29.375 54.358 29.0284C53.9545 28.6818 53.4517 28.5085 52.8494 28.5085C52.2415 28.5085 51.7301 28.6818 51.3153 29.0284C50.9063 29.375 50.5966 29.8466 50.3864 30.4432C50.1818 31.0398 50.0795 31.7188 50.0795 32.4801C50.0795 33.2415 50.1818 33.9205 50.3864 34.517C50.5966 35.1136 50.9063 35.5852 51.3153 35.9318C51.7301 36.2727 52.2415 36.4432 52.8494 36.4432ZM65.267 31.4318V39H61.6364V25.9091H65.0966V28.2188H65.25C65.5398 27.4574 66.0256 26.8551 66.7074 26.4119C67.3892 25.9631 68.2159 25.7386 69.1875 25.7386C70.0966 25.7386 70.8892 25.9375 71.5653 26.3352C72.2415 26.733 72.767 27.3011 73.142 28.0398C73.517 28.7727 73.7045 29.6477 73.7045 30.6648V39H70.0739V31.3125C70.0795 30.5114 69.875 29.8864 69.4602 29.4375C69.0455 28.983 68.4744 28.7557 67.7472 28.7557C67.2585 28.7557 66.8267 28.8608 66.4517 29.071C66.0824 29.2812 65.7926 29.5881 65.5824 29.9915C65.3778 30.3892 65.2727 30.8693 65.267 31.4318ZM83.5291 25.9091V28.6364H75.6456V25.9091H83.5291ZM77.4354 22.7727H81.0661V34.9773C81.0661 35.3125 81.1172 35.5739 81.2195 35.7614C81.3217 35.9432 81.4638 36.071 81.6456 36.1449C81.8331 36.2187 82.049 36.2557 82.2933 36.2557C82.4638 36.2557 82.6342 36.2415 82.8047 36.2131C82.9751 36.179 83.1058 36.1534 83.1967 36.1364L83.7678 38.8381C83.5859 38.8949 83.3303 38.9602 83.0007 39.0341C82.6712 39.1136 82.2706 39.1619 81.799 39.179C80.924 39.2131 80.157 39.0966 79.4979 38.8295C78.8445 38.5625 78.3359 38.1477 77.9723 37.5852C77.6087 37.0227 77.4297 36.3125 77.4354 35.4545V22.7727ZM91.7195 39.2557C90.3729 39.2557 89.2138 38.983 88.2422 38.4375C87.2763 37.8864 86.532 37.108 86.0092 36.1023C85.4865 35.0909 85.2251 33.8949 85.2251 32.5142C85.2251 31.1676 85.4865 29.9858 86.0092 28.9688C86.532 27.9517 87.2678 27.1591 88.2166 26.5909C89.1712 26.0227 90.2905 25.7386 91.5746 25.7386C92.4382 25.7386 93.2422 25.8778 93.9865 26.1562C94.7365 26.429 95.3899 26.8409 95.9467 27.392C96.5092 27.9432 96.9467 28.6364 97.2592 29.4716C97.5717 30.3011 97.728 31.2727 97.728 32.3864V33.3835H86.674V31.1335H94.3104C94.3104 30.6108 94.1967 30.1477 93.9695 29.7443C93.7422 29.3409 93.4268 29.0256 93.0234 28.7983C92.6257 28.5653 92.1626 28.4489 91.6342 28.4489C91.0831 28.4489 90.5945 28.5767 90.1683 28.8324C89.7479 29.0824 89.4183 29.4205 89.1797 29.8466C88.9411 30.267 88.8189 30.7358 88.8132 31.2528V33.392C88.8132 34.0398 88.9325 34.5994 89.1712 35.071C89.4155 35.5426 89.7592 35.9062 90.2024 36.1619C90.6456 36.4176 91.1712 36.5455 91.7791 36.5455C92.1825 36.5455 92.5518 36.4886 92.8871 36.375C93.2223 36.2614 93.5092 36.0909 93.7479 35.8636C93.9865 35.6364 94.1683 35.358 94.2933 35.0284L97.6513 35.25C97.4808 36.0568 97.1314 36.7614 96.603 37.3636C96.0803 37.9602 95.4041 38.4261 94.5746 38.7614C93.7507 39.0909 92.799 39.2557 91.7195 39.2557ZM103.728 31.4318V39H100.097V25.9091H103.558V28.2188H103.711C104.001 27.4574 104.487 26.8551 105.168 26.4119C105.85 25.9631 106.677 25.7386 107.648 25.7386C108.558 25.7386 109.35 25.9375 110.026 26.3352C110.702 26.733 111.228 27.3011 111.603 28.0398C111.978 28.7727 112.165 29.6477 112.165 30.6648V39H108.535V31.3125C108.54 30.5114 108.336 29.8864 107.921 29.4375C107.506 28.983 106.935 28.7557 106.208 28.7557C105.719 28.7557 105.288 28.8608 104.913 29.071C104.543 29.2812 104.254 29.5881 104.043 29.9915C103.839 30.3892 103.734 30.8693 103.728 31.4318ZM119.851 39.2131C118.857 39.2131 117.956 38.9574 117.149 38.446C116.348 37.929 115.712 37.1705 115.24 36.1705C114.774 35.1648 114.541 33.9318 114.541 32.4716C114.541 30.9716 114.783 29.7244 115.266 28.7301C115.749 27.7301 116.391 26.983 117.192 26.4886C117.999 25.9886 118.882 25.7386 119.842 25.7386C120.575 25.7386 121.186 25.8636 121.675 26.1136C122.169 26.358 122.567 26.6648 122.868 27.0341C123.175 27.3977 123.408 27.7557 123.567 28.108H123.678V21.5455H127.3V39H123.72V36.9034H123.567C123.396 37.267 123.155 37.6278 122.842 37.9858C122.536 38.3381 122.135 38.6307 121.641 38.8636C121.152 39.0966 120.555 39.2131 119.851 39.2131ZM121.001 36.3239C121.587 36.3239 122.081 36.1648 122.484 35.8466C122.893 35.5227 123.206 35.071 123.422 34.4915C123.643 33.9119 123.754 33.233 123.754 32.4545C123.754 31.6761 123.646 31 123.43 30.4261C123.214 29.8523 122.902 29.4091 122.493 29.0966C122.084 28.7841 121.587 28.6278 121.001 28.6278C120.405 28.6278 119.902 28.7898 119.493 29.1136C119.084 29.4375 118.774 29.8864 118.564 30.4602C118.354 31.0341 118.249 31.6989 118.249 32.4545C118.249 33.2159 118.354 33.8892 118.564 34.4744C118.78 35.054 119.089 35.5085 119.493 35.8381C119.902 36.1619 120.405 36.3239 121.001 36.3239ZM136.063 39.2642C134.796 39.2642 133.705 38.9773 132.79 38.4034C131.881 37.8239 131.183 37.0256 130.694 36.0085C130.205 34.9915 129.961 33.8267 129.961 32.5142C129.961 31.1847 130.211 30.0114 130.711 28.9943C131.211 27.9716 131.915 27.1733 132.825 26.5994C133.734 26.0256 134.805 25.7386 136.038 25.7386C137.032 25.7386 137.918 25.9233 138.697 26.2926C139.475 26.6562 140.103 27.1676 140.58 27.8267C141.063 28.4858 141.35 29.2557 141.441 30.1364H138.961C138.825 29.5227 138.512 28.9943 138.023 28.5511C137.54 28.108 136.893 27.8864 136.08 27.8864C135.37 27.8864 134.748 28.0739 134.214 28.4489C133.685 28.8182 133.273 29.3466 132.978 30.0341C132.683 30.7159 132.535 31.5227 132.535 32.4545C132.535 33.4091 132.68 34.233 132.969 34.9261C133.259 35.6193 133.668 36.1562 134.197 36.5369C134.731 36.9176 135.359 37.108 136.08 37.108C136.563 37.108 137.001 37.0199 137.393 36.8438C137.79 36.6619 138.123 36.4034 138.39 36.0682C138.663 35.733 138.853 35.3295 138.961 34.858H141.441C141.35 35.7045 141.075 36.4602 140.614 37.125C140.154 37.7898 139.538 38.3125 138.765 38.6932C137.998 39.0739 137.097 39.2642 136.063 39.2642ZM149.68 39.2642C148.453 39.2642 147.382 38.983 146.467 38.4205C145.553 37.858 144.842 37.071 144.337 36.0597C143.831 35.0483 143.578 33.8665 143.578 32.5142C143.578 31.1562 143.831 29.9687 144.337 28.9517C144.842 27.9347 145.553 27.1449 146.467 26.5824C147.382 26.0199 148.453 25.7386 149.68 25.7386C150.908 25.7386 151.979 26.0199 152.893 26.5824C153.808 27.1449 154.518 27.9347 155.024 28.9517C155.53 29.9687 155.783 31.1562 155.783 32.5142C155.783 33.8665 155.53 35.0483 155.024 36.0597C154.518 37.071 153.808 37.858 152.893 38.4205C151.979 38.983 150.908 39.2642 149.68 39.2642ZM149.689 37.125C150.484 37.125 151.143 36.9148 151.666 36.4943C152.189 36.0739 152.575 35.5142 152.825 34.8153C153.081 34.1165 153.209 33.3466 153.209 32.5057C153.209 31.6705 153.081 30.9034 152.825 30.2045C152.575 29.5 152.189 28.9347 151.666 28.5085C151.143 28.0824 150.484 27.8693 149.689 27.8693C148.888 27.8693 148.223 28.0824 147.695 28.5085C147.172 28.9347 146.783 29.5 146.527 30.2045C146.277 30.9034 146.152 31.6705 146.152 32.5057C146.152 33.3466 146.277 34.1165 146.527 34.8153C146.783 35.5142 147.172 36.0739 147.695 36.4943C148.223 36.9148 148.888 37.125 149.689 37.125ZM158.627 39V25.9091H161.09V27.9886H161.227C161.465 27.2841 161.886 26.7301 162.488 26.3267C163.096 25.9176 163.783 25.7131 164.55 25.7131C164.71 25.7131 164.897 25.7187 165.113 25.7301C165.335 25.7415 165.508 25.7557 165.633 25.7727V28.2102C165.531 28.1818 165.349 28.1506 165.087 28.1165C164.826 28.0767 164.565 28.0568 164.303 28.0568C163.701 28.0568 163.164 28.1847 162.692 28.4403C162.227 28.6903 161.857 29.0398 161.585 29.4886C161.312 29.9318 161.175 30.4375 161.175 31.0057V39H158.627ZM170.386 31.2273V39H167.838V25.9091H170.284V28.0398H170.446C170.747 27.3466 171.219 26.7898 171.861 26.3693C172.509 25.9489 173.324 25.7386 174.307 25.7386C175.199 25.7386 175.98 25.9261 176.651 26.3011C177.321 26.6705 177.841 27.2216 178.21 27.9545C178.58 28.6875 178.764 29.5937 178.764 30.6733V39H176.216V30.9801C176.216 30.0312 175.969 29.2898 175.474 28.7557C174.98 28.2159 174.301 27.946 173.438 27.946C172.847 27.946 172.321 28.0739 171.861 28.3295C171.406 28.5852 171.045 28.9602 170.778 29.4545C170.517 29.9432 170.386 30.5341 170.386 31.2273ZM187.824 39.2642C186.534 39.2642 185.423 38.9886 184.491 38.4375C183.565 37.8807 182.849 37.0994 182.344 36.0938C181.844 35.0824 181.594 33.8977 181.594 32.5398C181.594 31.1989 181.844 30.017 182.344 28.9943C182.849 27.9716 183.554 27.1733 184.457 26.5994C185.366 26.0256 186.429 25.7386 187.645 25.7386C188.384 25.7386 189.099 25.8608 189.793 26.1051C190.486 26.3494 191.108 26.733 191.659 27.2557C192.21 27.7784 192.645 28.4574 192.963 29.2926C193.281 30.1222 193.44 31.1307 193.44 32.3182V33.2216H183.034V31.3125H190.943C190.943 30.642 190.807 30.0483 190.534 29.5312C190.261 29.0085 189.878 28.5966 189.384 28.2955C188.895 27.9943 188.321 27.8438 187.662 27.8438C186.946 27.8438 186.321 28.0199 185.787 28.3722C185.259 28.7187 184.849 29.1733 184.56 29.7358C184.276 30.2926 184.134 30.8977 184.134 31.5511V33.0426C184.134 33.9176 184.287 34.6619 184.594 35.2756C184.906 35.8892 185.341 36.358 185.898 36.6818C186.455 37 187.105 37.1591 187.849 37.1591C188.332 37.1591 188.773 37.0909 189.17 36.9545C189.568 36.8125 189.912 36.6023 190.202 36.3239C190.491 36.0455 190.713 35.7017 190.866 35.2926L193.278 35.7273C193.085 36.4375 192.739 37.0597 192.239 37.5938C191.744 38.1222 191.122 38.5341 190.372 38.8295C189.628 39.1193 188.778 39.2642 187.824 39.2642ZM196.268 39V25.9091H198.731V27.9886H198.867C199.106 27.2841 199.526 26.7301 200.129 26.3267C200.737 25.9176 201.424 25.7131 202.191 25.7131C202.35 25.7131 202.538 25.7187 202.754 25.7301C202.975 25.7415 203.148 25.7557 203.273 25.7727V28.2102C203.171 28.1818 202.989 28.1506 202.728 28.1165C202.467 28.0767 202.205 28.0568 201.944 28.0568C201.342 28.0568 200.805 28.1847 200.333 28.4403C199.867 28.6903 199.498 29.0398 199.225 29.4886C198.952 29.9318 198.816 30.4375 198.816 31.0057V39H196.268Z" fill="#1ff"/>

<path d="M15.45 31.4L3.1 21.45L6.1 18.45L21.6 31.4L6.1 43.8L3.1 40.8L15.45 31.4Z" fill="#3B82F6"/>
</svg>
